<svg id="svg" xmlns="http://www.w3.org/2000/svg" xmlns:xlink="http://www.w3.org/1999/xlink" width="400" height="400" viewBox="0, 0, 400,400"><g id="svgg"><path id="path0" d="M19.012 1.437 C 11.395 4.085,4.454 10.951,1.479 18.780 C 0.018 22.627,-0.039 24.744,0.171 67.845 L 0.391 112.891 3.039 117.775 C 6.257 123.708,11.126 128.347,17.051 131.125 L 21.484 133.203 91.797 133.203 L 162.109 133.203 166.787 130.907 C 172.745 127.981,177.997 122.729,180.914 116.780 L 183.203 112.109 183.203 66.797 L 183.203 21.484 181.125 17.051 C 178.347 11.126,173.708 6.257,167.775 3.039 L 162.891 0.391 92.969 0.212 C 27.452 0.045,22.793 0.122,19.012 1.437 M236.597 1.080 C 228.602 3.960,222.381 9.575,218.856 17.094 L 216.797 21.484 216.797 116.797 L 216.797 212.109 219.093 216.787 C 222.019 222.745,227.271 227.997,233.220 230.914 L 237.891 233.203 308.203 233.203 L 378.516 233.203 382.949 231.125 C 388.874 228.347,393.743 223.708,396.961 217.775 L 399.609 212.891 399.609 116.797 L 399.609 20.703 397.486 16.380 C 394.776 10.862,389.138 5.224,383.620 2.514 L 379.297 0.391 309.375 0.221 C 253.179 0.085,238.892 0.254,236.597 1.080 M20.536 167.531 C 12.785 169.974,6.632 175.263,2.566 182.980 L 0.391 187.109 0.391 283.203 L 0.391 379.297 2.514 383.620 C 5.224 389.138,10.862 394.776,16.380 397.486 L 20.703 399.609 91.797 399.609 L 162.891 399.609 167.775 396.961 C 173.708 393.743,178.347 388.874,181.125 382.949 L 183.203 378.516 183.203 283.203 L 183.203 187.891 180.907 183.213 C 177.981 177.255,172.745 172.019,166.787 169.093 L 162.109 166.797 92.969 166.645 C 37.339 166.523,23.185 166.697,20.536 167.531 M236.092 267.944 C 230.294 270.043,225.117 273.983,221.651 278.935 C 216.283 286.604,216.330 286.088,216.576 334.857 L 216.797 378.516 218.875 382.949 C 221.653 388.874,226.292 393.743,232.225 396.961 L 237.109 399.609 308.203 399.609 L 379.297 399.609 383.620 397.486 C 389.138 394.776,394.776 389.138,397.486 383.620 L 399.609 379.297 399.609 333.203 L 399.609 287.109 396.961 282.225 C 393.743 276.292,388.874 271.653,382.949 268.875 L 378.516 266.797 309.375 266.621 C 242.928 266.452,240.073 266.504,236.092 267.944 " stroke="none" fill="#000000" fill-rule="evenodd"></path></g></svg>